# xmcd
#
# Track frame offsets:
#	150
#	13622
#	28808
#	41896
#	57157
#	70329
#	87312
#	102304
#	113660
#	128278
#	145811
#	163293
#	176638
#	191031
#	206840
#	219285
#	232422
#
# Disc length: 3282 seconds
#
# Revision: 0
# Processed by: cddbd v1.5.2PL0 Copyright (c) Steve Scherf et al.
# Submitted via: audiograbber 1.83.01
#
DISCID=fb0cd011
DTITLE=Gilberto and Gilmar - Show 30 anos de carreira
DYEAR=2003
DGENRE=Sertanejo
TTITLE0=Só Mais Uma Vez
TTITLE1=Pout-Porri de Polca
TTITLE2=Música da Saudade
TTITLE3=Pout-Porri de Rancheira
TTITLE4=Capa de Revista
TTITLE5=Tá Ruim Mais Tá Bom
TTITLE6=Luz do Amanhecer
TTITLE7=Assino Com X
TTITLE8=Mais Que Paixão
TTITLE9=Pout-Porri de Bolero
TTITLE10=Praia de Solidão
TTITLE11=Paixão
TTITLE12=Palavras de Amor
TTITLE13=Quebrando Tudo
TTITLE14=Fome de Amor
TTITLE15=Tá Embolado o Meio de Campo
TTITLE16=Arrepia Arrepia
EXTD=
EXTT0=
EXTT1=
EXTT2=
EXTT3=
EXTT4=
EXTT5=
EXTT6=
EXTT7=
EXTT8=
EXTT9=
EXTT10=
EXTT11=
EXTT12=
EXTT13=
EXTT14=
EXTT15=
EXTT16=
PLAYORDER=
